<?xml version="1.0" encoding="UTF-8"?>
<svg version="1.1" xmlns="http://www.w3.org/2000/svg" width="512" height="512">
<path d="M0 0 C1.15668684 -0.00573832 1.15668684 -0.00573832 2.33674109 -0.01159257 C4.91683461 -0.02189912 7.49670462 -0.01793489 10.07681274 -0.01396179 C11.92824001 -0.01830959 13.77966547 -0.02349296 15.63108826 -0.02944946 C20.65798163 -0.04284402 25.68479985 -0.04341758 30.71170759 -0.04088616 C34.90902424 -0.03981668 39.10632567 -0.04469929 43.30363905 -0.04949158 C53.20672024 -0.06058853 63.1097635 -0.06102323 73.0128479 -0.05497742 C83.22674417 -0.04893768 93.44050267 -0.06124824 103.65437543 -0.08254749 C112.42564725 -0.10016543 121.19687523 -0.1061645 129.96816409 -0.10290974 C135.20592978 -0.10109692 140.44359723 -0.10373295 145.68134689 -0.11762428 C150.60780415 -0.13020095 155.53404676 -0.12825998 160.46050072 -0.11521339 C162.26685471 -0.11284765 164.07322379 -0.11558222 165.87956047 -0.12383652 C168.34907333 -0.13430605 170.81786627 -0.12620193 173.28735352 -0.11352539 C173.99894225 -0.12089968 174.71053099 -0.12827396 175.44368303 -0.13587171 C181.42120851 -0.07150188 186.10398146 1.27945706 190.57266235 5.36567688 C192.89477953 9.32479485 193.61296768 13.09554788 194.43862915 17.58100891 C194.63772385 18.59575287 194.83681854 19.61049683 195.04194641 20.6559906 C195.51479744 23.0764232 195.98067806 25.49822274 196.4414978 27.92097473 C197.3904575 32.90936629 198.37386926 37.890882 199.35513306 42.8730011 C201.16374367 52.07143971 202.94923815 61.27418167 204.72151375 70.47968674 C205.76039822 75.87540145 206.80296497 81.27033906 207.85488892 86.66352844 C208.88686802 91.95456221 209.90972385 97.24728302 210.92607689 102.54133987 C211.31086038 104.53769012 211.6987592 106.53344275 212.0899601 108.52854538 C212.63461909 111.30988983 213.16747039 114.09326234 213.69766235 116.87739563 C213.85812042 117.68270721 214.01857849 118.4880188 214.18389893 119.31773376 C216.821298 133.39798084 216.821298 133.39798084 213.6456604 139.26069641 C208.84490248 143.30343992 203.55735811 143.55385985 197.50372314 143.52139282 C196.35906367 143.52713114 196.35906367 143.52713114 195.19127977 143.53298539 C192.64426416 143.54327177 190.09747582 143.53933157 187.55044556 143.53535461 C185.72019747 143.53970352 183.88995121 143.54488727 182.05970764 143.55084229 C177.09478755 143.56422473 172.12994363 143.56481175 167.16500902 143.56227899 C163.01744296 143.5612087 158.86989227 143.56609416 154.7223295 143.57088441 C144.93569371 143.58197713 135.14909631 143.58241841 125.36245728 143.57637024 C115.27295953 143.57033068 105.18360125 143.58264158 95.0941273 143.60394031 C86.42557882 143.6215653 77.7570747 143.62755622 69.08850896 143.62430257 C63.91388302 143.6224909 58.73935655 143.62511426 53.56474686 143.63901711 C48.69736827 143.65160529 43.8302068 143.64964191 38.9628315 143.63660622 C37.17947249 143.634243 35.39609816 143.63696598 33.61275673 143.64522934 C31.17210916 143.65572033 28.73218698 143.64757769 26.29156494 143.63491821 C25.59135306 143.6422925 24.89114118 143.64966678 24.16971076 143.65726453 C18.1035955 143.59139022 12.58622987 142.25941366 7.9190979 138.23091125 C5.52118179 133.9102585 4.77532747 129.56949807 3.8956604 124.73725891 C3.68947586 123.67148117 3.48329132 122.60570343 3.27085876 121.50762939 C2.58999565 117.96952271 1.93011061 114.42785147 1.2706604 110.88569641 C0.79946416 108.40882092 0.32702996 105.93218064 -0.14657593 103.45576477 C-1.02344393 98.86110364 -1.89530218 94.26556454 -2.7603159 89.66866207 C-4.37021337 81.11613624 -6.02332892 72.57250317 -7.69088364 64.03105164 C-8.53007755 59.72723981 -9.36370297 55.422347 -10.19695854 51.11738205 C-10.87106316 47.63526076 -11.54724612 44.15357614 -12.22860718 40.67286682 C-12.99247006 36.7677964 -13.74232328 32.86010302 -14.49105835 28.95210266 C-14.71863327 27.79814499 -14.94620819 26.64418732 -15.18067932 25.45526123 C-18.15896737 9.74930771 -18.15896737 9.74930771 -15.0418396 4.32319641 C-10.45918327 0.23596239 -5.93487123 -0.03132434 0 0 Z M-5.7293396 11.26069641 C-4.52892646 19.32009509 -3.21296328 27.34039934 -1.68222046 35.34346008 C-1.48846329 36.36627075 -1.29470612 37.38908142 -1.09507751 38.44288635 C-0.46376456 41.77192451 0.17086703 45.10031887 0.80581665 48.42866516 C1.24908131 50.75939812 1.69223025 53.09015308 2.13526917 55.42092896 C3.05915701 60.2783745 3.98475693 65.13548992 4.91152954 69.99238586 C6.10105022 76.22726317 7.28574201 82.46304711 8.46912479 88.69909191 C9.38063581 93.49914344 10.29491371 98.29866473 11.21002007 103.098032 C11.6483246 105.39884855 12.08570116 107.69984208 12.52214241 110.0010128 C13.12955401 113.20165135 13.74073712 116.40154674 14.35293579 119.60127258 C14.5332132 120.55548599 14.7134906 121.5096994 14.89923096 122.49282837 C15.06599838 123.36027679 15.23276581 124.22772522 15.40458679 125.12145996 C15.54855424 125.87703784 15.69252169 126.63261572 15.84085178 127.4110899 C16.21348026 129.34063249 16.21348026 129.34063249 17.2706604 131.26069641 C78.9806604 131.26069641 140.6906604 131.26069641 204.2706604 131.26069641 C199.85030246 105.62058394 199.85030246 105.62058394 195.1690979 80.03022766 C194.98987415 79.07742102 194.81065041 78.12461437 194.62599564 77.1429348 C193.68544932 72.14733869 192.74151955 67.15239488 191.79507446 62.15791321 C191.01820904 58.0543769 190.24885851 53.94953089 189.48550415 49.84346008 C188.55068698 44.81530806 187.60371469 39.78959455 186.64769363 34.76543236 C186.28857894 32.86717026 185.93375834 30.96809049 185.58335495 29.06820107 C185.09811859 26.44223603 184.59730146 23.8197153 184.09243774 21.19746399 C183.95211624 20.41799911 183.81179474 19.63853424 183.66722107 18.83544922 C183.29662351 16.95596443 182.79403775 15.10348825 182.2706604 13.26069641 C178.65714484 10.85168604 176.05837674 10.98600934 171.88658142 11.02018738 C171.12856096 11.01847853 170.3705405 11.01676968 169.58954972 11.01500905 C167.04215865 11.01170715 164.49502928 11.02272927 161.94766235 11.03364563 C160.12458299 11.03420959 158.30150317 11.03389348 156.47842407 11.03276062 C151.52210863 11.03218552 146.5658895 11.04396519 141.60959649 11.05790854 C136.43259176 11.07038979 131.25558496 11.07158433 126.0785675 11.07395935 C116.27196471 11.08018179 106.46540638 11.09660294 96.65882319 11.11665833 C85.4957316 11.13899358 74.33263792 11.15000478 63.16952956 11.1600492 C40.20321517 11.1809685 17.23694027 11.21615931 -5.7293396 11.26069641 Z " fill="#000000" transform="translate(51.729339599609375,327.7393035888672)"/>
<path d="M0 0 C2.92889174 3.14820489 3.43367508 5.74709527 4.0625 9.9375 C5.09625507 14.55972435 5.09625507 14.55972435 8.34375 17.82421875 C11.02044353 19.15166096 11.02044353 19.15166096 13.72265625 20.1328125 C16 21 16 21 18 23 C20.15654061 22.79306869 20.15654061 22.79306869 22.5625 22.125 C34.20183824 19.56838235 34.20183824 19.56838235 39.6875 22.375 C44.42339306 27.75087861 48.7116479 34.10724667 49.25 41.375 C48.97233091 45.40120173 48.48761967 46.87041396 46 50 C45.41992188 50.34417969 44.83984375 50.68835938 44.2421875 51.04296875 C41.86023575 52.53289404 40.56188664 53.63462313 39 56 C37.61567401 62.92162996 37.00119492 69.95680949 40.99609375 76.0390625 C43.22533346 78.22906759 45.51336811 80.11504842 48 82 C49.54239896 85.08479792 49.60760303 87.67537963 49 91 C46.55358893 97.20633145 43.65692985 104.18486127 38 108 C32.84555859 109.61204642 29.02534732 109.14610798 24.0625 107.1875 C20.78357978 106.03655297 19.55248576 105.77662087 16.28515625 107.09765625 C14.5614101 108.1683532 12.87089433 109.2953142 11.2265625 110.484375 C9.07650533 111.94792269 7.5361089 112.55994457 5 113 C4.91363281 113.79664063 4.82726562 114.59328125 4.73828125 115.4140625 C3.84785502 122.12901998 3.1036103 126.3943029 -2 131 C-5.80592493 132.26864164 -9.40870641 132.22320072 -13.375 132.25 C-14.50808594 132.2809375 -14.50808594 132.2809375 -15.6640625 132.3125 C-20.30362079 132.34494446 -23.19167286 131.93003619 -27 129 C-30.33872349 125.66127651 -31.24587543 121.54249154 -32 117 C-32 115.68 -32 114.36 -32 113 C-32.825 112.773125 -33.65 112.54625 -34.5 112.3125 C-37.54486403 111.17067599 -39.3061729 110.11316116 -41.875 108.25 C-45.24422116 106.06128246 -45.65008436 105.93791819 -49.875 106.6875 C-50.85533203 107.02201172 -50.85533203 107.02201172 -51.85546875 107.36328125 C-56.84359188 108.84427227 -62.07783903 108.96108049 -66.75 106.625 C-71.41051137 101.18773674 -75.62903405 94.93223906 -76.3125 87.6875 C-75.93459813 83.22825797 -74.83370115 81.43026981 -72 78 C-70.47052734 76.92878906 -70.47052734 76.92878906 -68.91015625 75.8359375 C-66.1070304 73.52894773 -65.99025768 72.95799416 -65.09765625 69.109375 C-65.04174896 67.65727859 -65.03169705 66.20284575 -65.0625 64.75 C-65.06709229 63.99146729 -65.07168457 63.23293457 -65.07641602 62.45141602 C-65.34992427 57.21656903 -66.44986095 54.57478738 -70.4375 50.9375 C-71.2521875 50.26203125 -72.066875 49.5865625 -72.90625 48.890625 C-75.05605331 46.94938469 -75.84624991 45.98456773 -76.4375 43.1875 C-76.58957271 35.61427895 -70.91927573 27.37075801 -66 22 C-62.11847135 19.93402507 -58.32231991 19.65117806 -54.09765625 20.765625 C-53.09605469 21.09046875 -52.09445312 21.4153125 -51.0625 21.75 C-47.39610117 22.83912231 -45.69899138 23.2620048 -42.08203125 21.90625 C-39.60093561 20.38823477 -37.29970398 18.77746045 -35 17 C-34.34 16.67 -33.68 16.34 -33 16 C-32.47015075 14.10185872 -32.02505412 12.17967284 -31.625 10.25 C-29.65722415 2.04768679 -29.65722415 2.04768679 -26 -1 C-17.91755258 -4.53607075 -7.62172627 -4.54060289 0 0 Z M-19 9 C-19.23074219 9.89203125 -19.46148437 10.7840625 -19.69921875 11.703125 C-20.02535156 12.87359375 -20.35148437 14.0440625 -20.6875 15.25 C-21.00074219 16.41015625 -21.31398438 17.5703125 -21.63671875 18.765625 C-24.09820761 24.6054897 -29.52891256 27.13181725 -34.8125 30.25 C-35.39064453 30.61351563 -35.96878906 30.97703125 -36.56445312 31.3515625 C-42.6378901 34.9218039 -48.18293178 34.70426705 -55 33 C-55.763125 32.814375 -56.52625 32.62875 -57.3125 32.4375 C-57.869375 32.293125 -58.42625 32.14875 -59 32 C-59.86949317 33.07107117 -60.72014205 34.15745944 -61.5625 35.25 C-62.03816406 35.85328125 -62.51382812 36.4565625 -63.00390625 37.078125 C-64.17741782 38.93767575 -64.17741782 38.93767575 -63.87109375 41.0078125 C-62.79946846 43.45861472 -61.45406235 44.80708134 -59.5 46.625 C-55.64459915 50.24338851 -54.86813873 52.06909475 -54.65625 57.3828125 C-54.59753372 59.63004482 -54.54576425 61.87746661 -54.5 64.125 C-54.44585937 65.24132812 -54.39171875 66.35765625 -54.3359375 67.5078125 C-54.23960072 73.34306884 -54.42091845 77.10593122 -58.34375 81.6171875 C-59.53608127 82.77269122 -60.75370166 83.90292062 -62 85 C-62.99 85.99 -63.98 86.98 -65 88 C-63.35 90.97 -61.7 93.94 -60 97 C-57.7725 96.505 -57.7725 96.505 -55.5 96 C-47.50500689 94.4862215 -43.36276247 93.84259526 -36.375 98.3125 C-35.44429688 98.95574219 -34.51359375 99.59898437 -33.5546875 100.26171875 C-30.93538514 102.14492771 -30.93538514 102.14492771 -27.5 103.625 C-24.28570846 105.39286035 -23.43868602 106.61908786 -22 110 C-21.38853325 112.62115414 -20.87725777 115.23661183 -20.4296875 117.890625 C-20.20665027 119.97726162 -20.20665027 119.97726162 -19 121 C-17.14712498 121.07226502 -15.29166122 121.0838122 -13.4375 121.0625 C-11.91962891 121.04896484 -11.91962891 121.04896484 -10.37109375 121.03515625 C-9.58863281 121.02355469 -8.80617188 121.01195312 -8 121 C-7.70609375 119.57107422 -7.70609375 119.57107422 -7.40625 118.11328125 C-5.01184554 108.07123151 -5.01184554 108.07123151 -2.26953125 105.16796875 C-0.2325173 103.95226582 1.84665304 102.99267768 4 102 C5.49051116 100.93232888 6.96950768 99.84842782 8.4375 98.75 C12.86593576 95.7926281 16.67590041 94.69826858 22 95 C25.8125 95.9375 25.8125 95.9375 29 97 C30.32 97 31.64 97 33 97 C33.680625 95.9275 34.36125 94.855 35.0625 93.75 C35.44535156 93.14671875 35.82820313 92.5434375 36.22265625 91.921875 C37.22562222 89.44218025 37.03337918 88.45127154 36 86 C34.42127172 84.09689564 34.42127172 84.09689564 32.5 82.375 C28.09398683 78.23984829 28.09398683 78.23984829 27.82299805 74.66503906 C27.75666674 71.52659043 27.71506763 68.38903414 27.6875 65.25 C27.64399414 63.62191406 27.64399414 63.62191406 27.59960938 61.9609375 C27.54932572 55.63293334 27.68760928 51.76754466 32 47 C33.89783452 45.12828247 35.88261698 43.63615961 38 42 C36.35 38.7 34.7 35.4 33 32 C31.700625 32.33 30.40125 32.66 29.0625 33 C27.37846217 33.35040539 25.69076243 33.68363034 24 34 C23.30390625 34.13664062 22.6078125 34.27328125 21.890625 34.4140625 C13.01571146 35.31489959 5.21197943 28.81383626 -1.8125 24.12109375 C-4.55336269 21.46343582 -5.00849974 19.52452264 -5.75 15.8125 C-6.24278513 12.09738377 -6.24278513 12.09738377 -8 9 C-9.85287502 8.92773498 -11.70833878 8.9161878 -13.5625 8.9375 C-14.57441406 8.94652344 -15.58632813 8.95554687 -16.62890625 8.96484375 C-17.41136719 8.97644531 -18.19382812 8.98804688 -19 9 Z " fill="#000000" transform="translate(364,44)"/>
<path d="M0 0 C1.41441874 2.82883747 1.31900332 4.87376745 1 8 C-2.09386865 10.88309414 -5.81374611 12.37571052 -9.625 14.125 C-23.92215195 21.03997455 -32.67292263 32.11860897 -38 46.92578125 C-39.19381353 50.59582518 -40.1864753 54.22820368 -41 58 C-39.94039062 57.96519531 -38.88078125 57.93039063 -37.7890625 57.89453125 C-36.40105748 57.86639601 -35.01303537 57.83909557 -33.625 57.8125 C-32.92632812 57.78736328 -32.22765625 57.76222656 -31.5078125 57.73632812 C-29.4765625 57.70703125 -29.4765625 57.70703125 -26 58 C-23.85237816 61.22143276 -23.438932 62.2595467 -24 66 C-26.41116024 68.47584991 -27.75750757 68.97803511 -31.234375 69.29296875 C-32.39453125 69.25816406 -33.5546875 69.22335938 -34.75 69.1875 C-35.92046875 69.16042969 -37.0909375 69.13335937 -38.296875 69.10546875 C-39.18890625 69.07066406 -40.0809375 69.03585938 -41 69 C-36.011884 86.64864563 -36.011884 86.64864563 -25 101 C-25 101.66 -25 102.32 -25 103 C-24.42894531 103.26167969 -23.85789062 103.52335937 -23.26953125 103.79296875 C-20.83920426 105.08551787 -18.8579485 106.62187432 -16.6875 108.3125 C-9.12537476 113.70276486 -0.09090538 116.37229504 9 118 C8.96519531 117.02417969 8.93039063 116.04835938 8.89453125 115.04296875 C8.86746094 113.77066406 8.84039062 112.49835938 8.8125 111.1875 C8.76029297 109.29064453 8.76029297 109.29064453 8.70703125 107.35546875 C9 104 9 104 10.3203125 102.04296875 C12 101 12 101 15.0625 101.125 C18 102 18 102 20 105 C20.1953125 108.13671875 20.1953125 108.13671875 20.125 111.6875 C20.10695313 112.86699219 20.08890625 114.04648437 20.0703125 115.26171875 C20.04710937 116.16535156 20.02390625 117.06898438 20 118 C35.05628956 115.1045597 48.59337472 108.74706178 58.02734375 96.33203125 C63.74197184 87.76612995 67.05223782 79.06343794 69 69 C68.10796875 69.04640625 67.2159375 69.0928125 66.296875 69.140625 C65.12640625 69.17671875 63.9559375 69.2128125 62.75 69.25 C61.58984375 69.29640625 60.4296875 69.3428125 59.234375 69.390625 C56 69 56 69 53.5703125 67.18359375 C52 65 52 65 52.125 61.8125 C52.41375 60.884375 52.7025 59.95625 53 59 C56.00313748 57.49843126 58.79067522 57.90718796 62.125 57.9375 C63.40632813 57.94652344 64.68765625 57.95554688 66.0078125 57.96484375 C67.48894531 57.98224609 67.48894531 57.98224609 69 58 C64.70425096 40.00105151 58.29420546 26.28952629 42.203125 15.91015625 C38.79400423 13.87715618 35.40966994 12.17588437 31.70703125 10.75390625 C30 10 30 10 28 8 C28.25 4.4375 28.25 4.4375 29 1 C32.5680026 -0.7840013 36.26394429 0.11046293 40 1 C58.02704334 8.54620419 69.55057384 22.47139946 77 40 C83.03860882 56.03354755 82.5648638 73.98359894 75.75 89.75 C66.76688939 107.76969211 54.0174518 119.91818741 35 127 C17.17098609 132.05246266 -1.48721973 130.70331724 -18 122 C-21.50610254 119.86362848 -24.76567653 117.52595721 -28 115 C-28.68707031 114.48953125 -29.37414062 113.9790625 -30.08203125 113.453125 C-42.04083351 103.923823 -49.61868336 88.93587717 -52 74 C-53.62035692 53.56539184 -50.20861856 35.98293822 -37.25 19.625 C-28.96782089 10.21684488 -13.36227564 -3.19532678 0 0 Z " fill="#000000" transform="translate(122,182)"/>
<path d="M0 0 C15.41233712 12.86365111 22.69224868 30.41511639 25 50 C25.27111027 54.84070493 25.30428532 59.66808556 25.30078125 64.515625 C25.30468334 65.86554085 25.30902102 67.2154555 25.31376648 68.56536865 C25.32115413 71.3688153 25.32099 74.1721358 25.31567383 76.97558594 C25.30985293 80.54491955 25.32690893 84.11373865 25.3500185 87.68298721 C25.36482672 90.46102853 25.36561859 93.23894738 25.36250877 96.01702118 C25.36326168 97.96500439 25.37705183 99.91296882 25.39118958 101.86090088 C25.3420353 111.31997887 24.44842229 119.39964072 17.71875 126.4921875 C12.01521024 131.49574738 6.80413974 132.44016908 -0.6796875 132.3359375 C-3 132 -3 132 -5 130 C-5.55999061 124.73608828 -5.55999061 124.73608828 -3.7578125 122.3671875 C-1.6528359 120.72998348 -0.18347743 120.45586761 2.4375 120.0625 C6.44513335 119.26227451 8.58320846 118.48017981 11 115 C13.71681153 109.05732061 13.30578553 102.90803735 13.30078125 96.5078125 C13.30720894 94.67970535 13.30720894 94.67970535 13.31376648 92.81466675 C13.31950406 90.23419819 13.32001427 87.65371347 13.31567383 85.07324219 C13.31253902 81.17353715 13.33589374 77.27460993 13.36132812 73.375 C13.7151488 49.80853622 13.7151488 49.80853622 6.4375 27.6875 C5.92086792 26.70342163 5.92086792 26.70342163 5.39379883 25.69946289 C-2.64107461 11.0764582 -15.40252605 2.25388596 -31 -3 C-48.07183945 -7.6036421 -64.88391314 -4.69304187 -80.2265625 3.703125 C-93.8353264 11.66956513 -102.10987468 24.25787714 -107 39 C-108.90298599 47.7992516 -109.29700344 56.51881147 -109.265625 65.4921875 C-109.26849518 67.33745529 -109.26849518 67.33745529 -109.27142334 69.22000122 C-109.27277384 71.79640917 -109.26915755 74.37282419 -109.26074219 76.94921875 C-109.24997107 80.88557134 -109.26070488 84.82147334 -109.2734375 88.7578125 C-109.27211678 91.2734385 -109.26955621 93.78906422 -109.265625 96.3046875 C-109.26967346 97.47458221 -109.27372192 98.64447693 -109.27789307 99.849823 C-109.24500117 105.58210244 -109.16142752 110.64776281 -107 116 C-102.98335655 119.45618157 -99.05117359 120.64006865 -94 122 C-92 124 -92 124 -91.75 127 C-92 130 -92 130 -94 132 C-99.82316414 132.93084036 -105.07481979 132.27204857 -110.18359375 129.3203125 C-116.338882 124.84614599 -119.38968777 119.35271087 -121 112 C-121.4186928 107.29744339 -121.4208005 102.62117799 -121.3984375 97.90234375 C-121.40046512 96.54105982 -121.40338223 95.17977697 -121.40713501 93.8184967 C-121.41153662 90.97337442 -121.40520496 88.12853625 -121.39111328 85.28344727 C-121.37413464 81.68498539 -121.38408541 78.08719426 -121.40143013 74.48875618 C-121.5166471 46.39885878 -119.24053321 24.16330492 -99.125 2.6875 C-94.58767885 -1.66001289 -89.42479937 -4.87153901 -84 -8 C-83.33226562 -8.39058594 -82.66453125 -8.78117188 -81.9765625 -9.18359375 C-55.26213986 -23.6679959 -23.17464948 -18.10426285 0 0 Z " fill="#000000" transform="translate(396,201)"/>
<path d="M0 0 C1.19510893 -0.00573832 1.19510893 -0.00573832 2.41436148 -0.01159257 C5.09291716 -0.02193864 7.77125913 -0.01792741 10.4498291 -0.01396179 C12.36656392 -0.01830734 14.28329699 -0.02348996 16.20002747 -0.02944946 C21.41271442 -0.04286663 26.625329 -0.04341519 31.83802986 -0.04088616 C36.1847427 -0.03981844 40.53144078 -0.04469465 44.87815046 -0.04949158 C55.1291053 -0.06059586 65.3800235 -0.06101879 75.63098145 -0.05497742 C86.21868212 -0.04893372 96.80625003 -0.06125662 107.39392805 -0.08254749 C116.47422368 -0.10013812 125.55447694 -0.10616892 134.63478899 -0.10290974 C140.06248615 -0.10109291 145.49008859 -0.10377289 150.91777039 -0.11762428 C156.01983239 -0.13015702 161.1216867 -0.1283019 166.22374535 -0.11521339 C168.09950517 -0.11283821 169.97527941 -0.11561577 171.85102272 -0.12383652 C174.40523938 -0.13422629 176.95874898 -0.12626656 179.51293945 -0.11352539 C180.6348645 -0.12458682 180.6348645 -0.12458682 181.77945471 -0.13587171 C184.70909546 -0.10497759 186.75535644 -0.07908204 189.22090912 1.59267902 C190.82692011 4.17954283 190.57172281 6.29731742 190.25646973 9.26069641 C187.7580677 11.75909844 186.26564203 11.50556605 182.85618979 11.53750741 C182.09754502 11.53441021 181.33890024 11.53131301 180.55726624 11.52812195 C179.75321427 11.53265306 178.9491623 11.53718417 178.12074512 11.54185259 C175.41145325 11.55456938 172.70236051 11.55287157 169.99304199 11.55122375 C168.05674987 11.55720444 166.12046014 11.56400891 164.18417358 11.57157898 C158.91358484 11.58929226 153.64306097 11.59393657 148.37244534 11.59521055 C143.97856039 11.59710597 139.58469068 11.60445932 135.19081157 11.61155474 C124.82816833 11.62785628 114.46555986 11.63272206 104.10290527 11.63130188 C93.39874551 11.63009974 82.69478715 11.65121206 71.99067837 11.68278921 C62.81273812 11.70890339 53.63486385 11.71967123 44.45688671 11.71839106 C38.96989461 11.71788003 33.48308141 11.72364097 27.99612617 11.74474716 C22.83740124 11.76404808 17.67902737 11.76431012 12.52029037 11.7497139 C10.62356367 11.74761459 8.72681545 11.75239295 6.83012581 11.76443481 C4.24721759 11.77977528 1.66553693 11.77065449 -0.91734314 11.75517273 C-1.67375719 11.76545986 -2.43017124 11.77574698 -3.20950693 11.78634584 C-6.51150972 11.74239237 -8.27621408 11.69756562 -10.74047947 9.39385414 C-11.74353027 7.26069641 -11.74353027 7.26069641 -11.61853027 4.63569641 C-9.62282141 -0.78122763 -4.88910841 -0.02470422 0 0 Z " fill="#000000" transform="translate(286.7435302734375,452.7393035888672)"/>
<path d="M0 0 C4.18544647 0.34550313 6.65560814 1.36191161 10.35595703 3.3125 C10.95890594 3.62646729 11.56185486 3.94043457 12.18307495 4.26391602 C13.45548755 4.92983623 14.72434991 5.60257995 15.98974609 6.28173828 C17.87791831 7.29493898 19.77554943 8.28792104 21.67626953 9.27734375 C51.88284 25.12070533 51.88284 25.12070533 57.50056458 41.38192749 C58.11615614 43.50999816 58.67839374 45.64371923 59.21533203 47.79296875 C59.41417999 48.56884842 59.61302795 49.34472809 59.81790161 50.14411926 C60.23088999 51.76894043 60.63903554 53.39499972 61.04248047 55.0222168 C61.66281725 57.50870891 62.30934592 59.98743492 62.95751953 62.46679688 C63.35756033 64.05428434 63.75605302 65.64216289 64.15283203 67.23046875 C64.3474704 67.96702194 64.54210876 68.70357513 64.74264526 69.46244812 C65.77680619 73.75252085 65.98838731 76.42098775 63.78564453 80.3125 C62.78564453 81.3125 62.78564453 81.3125 59.22314453 81.375 C58.08876953 81.354375 56.95439453 81.33375 55.78564453 81.3125 C53.70479308 76.30686045 52.23654504 71.33604677 50.95361328 66.06640625 C50.79289337 65.40708099 50.63217346 64.74775574 50.46658325 64.06845093 C49.79732695 61.31362821 49.13153115 58.55839851 48.49145508 55.79663086 C46.07256006 45.4202953 43.78791045 36.14103224 34.23095703 30.1796875 C32.42846452 29.20038054 30.61218913 28.24617886 28.78564453 27.3125 C27.22861816 26.48153809 27.22861816 26.48153809 25.64013672 25.63378906 C22.32657508 23.87551265 18.99693999 22.15220069 15.66064453 20.4375 C14.51337891 19.84453125 13.36611328 19.2515625 12.18408203 18.640625 C9.38609247 17.19499706 6.58660785 15.7523552 3.78564453 14.3125 C3.67913574 15.49352295 3.57262695 16.6745459 3.46289062 17.89135742 C2.70398868 24.68451383 1.29882139 31.35518285 -0.05029297 38.05078125 C-0.33317749 39.46322391 -0.6160239 40.8756742 -0.89883423 42.28813171 C-1.48932888 45.23118543 -2.08329871 48.17351493 -2.67919922 51.11547852 C-3.44108239 54.88056441 -4.18949348 58.6481965 -4.93480492 62.4165926 C-5.51281037 65.32711888 -6.10024424 68.23568366 -6.69029617 71.14378929 C-6.97043083 72.53253302 -7.24710022 73.92198057 -7.52018356 75.31212807 C-7.90226405 77.25214605 -8.29896564 79.18926708 -8.69628906 81.1262207 C-8.91755463 82.22714554 -9.13882019 83.32807037 -9.36679077 84.46235657 C-10.22393002 87.34469676 -11.25423489 89.06189265 -13.21435547 91.3125 C-20.08935547 90.4375 -20.08935547 90.4375 -21.21435547 89.3125 C-21.70182072 83.45711601 -20.98359949 77.87664173 -19.77734375 72.16235352 C-19.62449921 71.40347336 -19.47165466 70.6445932 -19.31417847 69.86271667 C-18.81310094 67.38706777 -18.29933978 64.91426166 -17.78466797 62.44140625 C-17.43018179 60.71039462 -17.07625811 58.97926772 -16.72286987 57.24803162 C-15.9836823 53.63689646 -15.23827823 50.02711807 -14.48828125 46.41821289 C-13.52645514 41.7878532 -12.57952119 37.15459591 -11.63704109 32.52026463 C-10.91003431 28.95300254 -10.17568144 25.38728442 -9.43902206 21.82200432 C-9.08678648 20.11317552 -8.7367536 18.40389117 -8.38895035 16.69415474 C-7.90342309 14.31345848 -7.40815935 11.93499793 -6.91015625 9.55688477 C-6.76773499 8.84885712 -6.62531372 8.14082947 -6.47857666 7.41134644 C-5.00611472 0.48669504 -5.00611472 0.48669504 0 0 Z " fill="#000000" transform="translate(393.21435546875,342.6875)"/>
<path d="M0 0 C3.375 -0.125 3.375 -0.125 7 0 C9 2 9 2 9.1875 4.6875 C8.99033303 8.17078308 8.55102307 11.55610581 8 15 C8.721875 15.391875 9.44375 15.78375 10.1875 16.1875 C17.01410959 20.58687063 18.56094888 24.29168639 20.26953125 32.00390625 C22.27541981 40.23126735 27.04785168 47.33479251 33.87890625 52.390625 C39.06152079 55.36408465 44.13036899 55.89869948 50 55 C57.42480404 52.85951595 62.05773536 47.48622529 66.18359375 41.1953125 C69.13927499 35.83598387 70.44251324 29.98962168 71.875 24.07421875 C73.12872037 20.64825372 73.90686689 19.79512189 77 18 C77.9075 17.443125 78.815 16.88625 79.75 16.3125 C80.4925 15.879375 81.235 15.44625 82 15 C81.83951172 13.75283203 81.83951172 13.75283203 81.67578125 12.48046875 C81.55589844 11.39378906 81.43601562 10.30710937 81.3125 9.1875 C81.18488281 8.10855469 81.05726563 7.02960938 80.92578125 5.91796875 C81 3 81 3 82.26171875 1.1171875 C84 0 84 0 87.5 -0.0625 C91 1 91 1 92.9375 3.375 C94.77423604 9.64151119 95.23295733 15.48842026 92.3125 21.4375 C89.51652117 24.53574681 86.75038531 27.12480734 83 29 C82.26537331 31.24011195 82.26537331 31.24011195 81.6875 33.9375 C78.3932089 46.49799908 71.87690771 56.67994623 60.625 63.5625 C53.19591562 67.72514569 45.3431889 68.07634867 37 67 C25.61147831 63.49683385 17.99822115 55.6765455 12.25 45.5234375 C9.97697672 40.93477175 8.25443902 36.2899512 7.6875 31.1875 C6.61468638 27.77400213 3.95388727 26.85341947 1 25 C-3.6074155 19.76996079 -4.32785266 16.70184115 -4.30078125 9.84375 C-3.8632015 5.70663241 -2.38918909 3.35979716 0 0 Z " fill="#000000" transform="translate(303,267)"/>
<path d="M0 0 C7.18430022 5.19089103 11.34566089 11.07125199 13.72265625 19.640625 C14.90252192 28.85913586 13.01643463 37.58771804 7.3046875 45.0078125 C1.04915292 51.46414202 -6.19706879 54.67241872 -15.08984375 54.953125 C-25.08993355 54.70651366 -30.8375122 51.99145404 -38.10546875 45.05078125 C-42.10807645 40.60903853 -44.6917887 35.64256425 -45.27734375 29.640625 C-45.34050781 29.00769531 -45.40367187 28.37476563 -45.46875 27.72265625 C-45.92507902 19.40569179 -43.34094969 11.77898139 -38.15234375 5.265625 C-28.12884334 -5.25472996 -12.48830862 -7.45442779 0 0 Z M-28.08984375 11.515625 C-32.36631353 15.66990993 -33.88350201 19.43480489 -34.33203125 25.3046875 C-34.22002334 30.08902531 -32.90749688 33.82978987 -29.69140625 37.40234375 C-25.4152222 41.25837871 -21.74949298 43.36075905 -15.96484375 44.015625 C-10.03098798 43.41218204 -5.36955094 41.21874025 -1.40234375 36.703125 C2.4257906 31.18610785 3.10785216 27.69570464 2.26171875 21.07421875 C1.2468096 16.49241874 -1.2590296 13.71883998 -4.40234375 10.390625 C-12.88031473 5.23012092 -20.13503802 6.21242118 -28.08984375 11.515625 Z " fill="#000000" transform="translate(366.27734375,83.359375)"/>
<path d="M0 0 C4.96625326 5.09015147 7.81864365 10.2992435 8.09765625 17.53125 C7.84079538 24.84664759 5.72007894 30.38507276 1 36 C-7.19748923 43.07033446 -15.54741404 44.58066548 -26.08203125 44.30859375 C-34.77917055 43.6235748 -41.21796278 39.43611383 -47 33 C-51.07266462 27.02048084 -52.64669748 20.81785512 -51.4375 13.625 C-49.51297312 6.24135764 -45.70428621 0.74917078 -39.3125 -3.4375 C-26.50049152 -10.30244185 -11.36212915 -9.30749458 0 0 Z M-37.375 10.125 C-40.13864073 13.59051774 -40.90192229 16.38032237 -40.5859375 20.7890625 C-39.22282456 25.932542 -35.51080494 28.88488207 -31.375 31.9375 C-25.19230453 33.88390413 -18.80769547 33.88390413 -12.625 31.9375 C-8.41111114 28.8272487 -5.00412369 25.36264398 -2.9375 20.5 C-3.06248221 15.50071151 -5.21126997 11.93402241 -8.375 8.1875 C-17.13073075 0.89105771 -29.5781987 2.34624685 -37.375 10.125 Z " fill="#000000" transform="translate(173,381)"/>
<path d="M0 0 C2.85333672 3.76245915 4.00936219 7.91290802 5.17651367 12.41723633 C5.37202316 13.14638748 5.56753265 13.87553864 5.76896667 14.62678528 C6.40998809 17.02648384 7.0394233 19.4290372 7.66796875 21.83203125 C8.11168335 23.50976535 8.55580693 25.18739133 9.00032043 26.86491394 C9.92921179 30.37806649 10.85220377 33.89270434 11.77124023 37.40844727 C12.94611011 41.90041755 14.1369221 46.38797993 15.33240795 50.87450123 C16.25306844 54.33776814 17.16444902 57.8034267 18.07317543 61.26984215 C18.50832851 62.92473103 18.94648775 64.57883261 19.38777733 66.23209572 C20.00527915 68.5505443 20.60998815 70.87198303 21.21166992 73.19458008 C21.39397156 73.86861877 21.57627319 74.54265747 21.76409912 75.23712158 C22.97580859 79.99125487 23.4002262 84.13588342 23 89 C19.77856724 91.14762184 18.7404533 91.561068 15 91 C11.87407724 87.75933035 11.03264275 84.22598424 9.9152832 79.93652344 C9.72952728 79.23368225 9.54377136 78.53084106 9.35238647 77.80670166 C8.74320158 75.49309605 8.14694898 73.17636571 7.55078125 70.859375 C7.12987848 69.25062615 6.7081702 67.64208784 6.28569031 66.03375244 C5.17784822 61.80752936 4.08095618 57.5785389 2.98632812 53.34887695 C1.86663165 49.03033747 0.7365917 44.7145077 -0.39257812 40.3984375 C-2.60517838 31.9349079 -4.80621673 23.46842644 -7 15 C-11.04618163 16.30990567 -14.64933494 17.75623459 -18.37109375 19.8203125 C-19.35787109 20.35527344 -20.34464844 20.89023437 -21.36132812 21.44140625 C-23.41240803 22.56396554 -25.45931026 23.69419195 -27.50195312 24.83203125 C-37.26989197 30.09512159 -37.26989197 30.09512159 -43 29 C-45 26 -45 26 -45.2578125 23.1796875 C-43.20230002 17.9834541 -38.70390231 16.53608262 -33.875 14.125 C-31.860672 13.08073897 -29.8463491 12.0364681 -27.83203125 10.9921875 C-26.83896973 10.48655273 -25.8459082 9.98091797 -24.82275391 9.45996094 C-22.33167619 8.17154676 -19.88544417 6.83381187 -17.44921875 5.4453125 C-16.7835791 5.07003418 -16.11793945 4.69475586 -15.43212891 4.30810547 C-13.68321392 3.31831733 -11.93719938 2.32340915 -10.19140625 1.328125 C-6.44928807 -0.22918244 -4.00937232 -0.63079517 0 0 Z " fill="#000000" transform="translate(309,343)"/>
<path d="M0 0 C8.13147039 5.96871675 13.93027047 14.4221085 16.31640625 24.3046875 C16.85653407 28.33314082 16.69562723 31.49453358 14.94140625 35.2421875 C13.18659604 37.46944661 12.23747585 38.11296271 9.49609375 38.68359375 C-1.40343655 39.55186142 -11.81983839 32.78198135 -20.18359375 26.3671875 C-27.7841944 19.83961282 -35.82738224 11.86330152 -38.62109375 1.9921875 C-38.68359375 -0.6953125 -38.68359375 -0.6953125 -36.68359375 -3.6953125 C-24.55862146 -8.18939427 -10.84743982 -6.85267668 0 0 Z M-22.68359375 5.3046875 C-19.18952479 12.62635018 -14.27092748 16.86350715 -7.62109375 21.1796875 C-7.01942383 21.57309326 -6.41775391 21.96649902 -5.79785156 22.37182617 C-2.46137076 24.46378311 0.3889726 25.84438337 4.31640625 26.3046875 C3.28071739 19.68326099 0.20323942 14.46084706 -5.19921875 10.42578125 C-11.26989428 6.74254975 -15.49712199 5.16909369 -22.68359375 5.3046875 Z " fill="#000000" transform="translate(110.68359375,134.6953125)"/>
<path d="M0 0 C0.68642578 -0.020625 1.37285156 -0.04125 2.08007812 -0.0625 C7.16836872 -0.10101119 10.64448999 0.94650197 15.1875 3.25 C16.1875 4.25 16.1875 4.25 16.25 7.625 C14.80321085 17.75252407 4.63045801 26.9271496 -2.8125 33.25 C-12.20458458 39.89566274 -21.88156325 46.08715309 -33.8125 44.25 C-37.32762148 42.19236792 -37.69683606 40.65482377 -38.8125 36.75 C-39.43927003 28.5561284 -35.64525578 20.25656149 -30.50390625 14.05859375 C-21.73587606 4.68307879 -12.89194146 0.09523133 0 0 Z M-22.8125 22.25 C-24.6370261 24.93425045 -25.66337932 27.16826727 -26.8125 30.25 C-26.4825 31.24 -26.1525 32.23 -25.8125 33.25 C-15.0408681 27.99925153 -4.88419124 22.01345266 1.1875 11.25 C-9.12934262 10.60519734 -15.91200644 14.6459267 -22.8125 22.25 Z " fill="#000000" transform="translate(183.8125,128.75)"/>
<path d="M0 0 C2 2 2 2 2.3125 4.9375 C2 8 2 8 0.93359375 9.49609375 C-1.8537433 11.66402257 -5.00285621 12.81559331 -8.25 14.125 C-20.59664305 19.32973653 -31.96841651 26.06246505 -42 35 C-43.24523437 36.10408203 -43.24523437 36.10408203 -44.515625 37.23046875 C-54.65550296 46.76382027 -61.01361814 57.28008489 -65.06152344 70.49047852 C-66.71663022 75.81108681 -66.71663022 75.81108681 -70 78 C-75.55555556 77.44444444 -75.55555556 77.44444444 -77 76 C-78.43001651 61.69983488 -69.87812627 47.92858758 -61.24511719 37.0925293 C-48.2066634 21.34276483 -21.57373846 -1.62820668 0 0 Z " fill="#000000" transform="translate(278,112)"/>
<path d="M0 0 C2.40625 2.29296875 2.40625 2.29296875 4.5 5.1875 C8.9175527 10.97756907 13.16603964 15.26813533 19.375 19.0625 C22 21 22 21 23.125 23.5 C23 26 23 26 21.4375 28.375 C19 30 19 30 16.1875 29.7890625 C6.76752337 27.45715652 0.2204162 20.85734998 -5 13 C-7.99738039 14.17159511 -10.95820597 15.40980044 -13.90625 16.69921875 C-22.57517755 20.46736589 -31.28589004 23.93013958 -40.25 26.9375 C-41.11818359 27.23164795 -41.98636719 27.5257959 -42.88085938 27.82885742 C-55.08702998 31.83385873 -55.08702998 31.83385873 -59.4375 29.9375 C-61 28 -61 28 -61.5625 25 C-61 22 -61 22 -58.86376953 20.44555664 C-55.82076917 18.90952892 -52.87635193 17.86843498 -49.6171875 16.87109375 C-48.37590088 16.48026611 -47.13461426 16.08943848 -45.85571289 15.68676758 C-45.2052298 15.48306549 -44.5547467 15.2793634 -43.884552 15.06948853 C-32.98771559 11.64251795 -22.65920447 7.9521374 -12.84912109 1.96069336 C-8.2344559 -0.77240679 -5.37574552 -1.79405095 0 0 Z " fill="#000000" transform="translate(367,226)"/>
<path d="M0 0 C3.75918268 0.35608565 6.07641954 1.44914105 9.3828125 3.24609375 C16.16112394 6.89396365 21.54748986 8.14397278 29.2578125 7.30859375 C33.40898838 6.00449184 37.04452817 4.27922121 40.4453125 1.55859375 C43.09119509 -0.26615287 45.13012079 -0.03137274 48.2578125 0.30859375 C50.2578125 2.30859375 50.2578125 2.30859375 51.0078125 5.49609375 C50.13256083 9.94528976 49.41120975 10.45377383 45.8828125 13.05859375 C35.84822832 19.32141277 25.45691275 21.04158539 13.8203125 18.58203125 C7.47281803 16.77475852 1.40284675 14.55758271 -3.7421875 10.30859375 C-5.12343768 7.54609339 -4.93298056 5.36128276 -4.7421875 2.30859375 C-2.7421875 0.30859375 -2.7421875 0.30859375 0 0 Z " fill="#000000" transform="translate(327.7421875,354.69140625)"/>
<path d="M0 0 C3.0625 0.375 3.0625 0.375 4.7109375 1.7890625 C6.78729833 5.76175288 6.63569483 9.70302281 6.75 14.125 C6.80124023 15.45724609 6.80124023 15.45724609 6.85351562 16.81640625 C6.93578714 19.00247803 7.00500172 21.18815951 7.0625 23.375 C7.70316406 22.93027344 8.34382812 22.48554688 9.00390625 22.02734375 C16.94831048 16.829738 16.94831048 16.829738 21.1875 17.5 C22.610625 17.933125 22.610625 17.933125 24.0625 18.375 C24.8125 21.625 24.8125 21.625 25.0625 25.375 C21.81535099 29.70453201 16.83149641 32.04416839 12.1875 34.625 C11.00220703 35.31335938 11.00220703 35.31335938 9.79296875 36.015625 C5.46379661 38.43592756 2.1685396 40.2181992 -2.9375 39.375 C-5.45454805 36.85795195 -5.18419599 35.29827101 -5.21539307 31.86340332 C-5.2113446 31.11441772 -5.20729614 30.36543213 -5.203125 29.59375 C-5.20503845 28.82446167 -5.2069519 28.05517334 -5.20892334 27.26257324 C-5.21028508 25.6351692 -5.20658939 24.0077543 -5.19824219 22.38037109 C-5.18754221 19.88484369 -5.19813751 17.39003618 -5.2109375 14.89453125 C-5.2096159 13.31510257 -5.2070535 11.73567434 -5.203125 10.15625 C-5.20717346 9.4072644 -5.21122192 8.65827881 -5.21539307 7.88659668 C-5.14973424 0.65741288 -5.14973424 0.65741288 0 0 Z " fill="#000000" transform="translate(135.9375,216.625)"/>
<path d="M0 0 C2.9375 0.875 2.9375 0.875 4.9375 3.875 C5.19819641 6.10704041 5.19819641 6.10704041 5.2121582 8.74194336 C5.22169022 9.7298436 5.23122223 10.71774384 5.24104309 11.73558044 C5.24013168 12.80123734 5.23922028 13.86689423 5.23828125 14.96484375 C5.24256638 16.06091446 5.2468515 17.15698517 5.25126648 18.28627014 C5.25701231 20.60547189 5.25750819 22.92469167 5.25317383 25.24389648 C5.2500155 28.79507154 5.27346508 32.34541247 5.29882812 35.89648438 C5.30110122 38.14843645 5.30180457 40.40039076 5.30078125 42.65234375 C5.309991 43.71597641 5.31920074 44.77960907 5.32868958 45.87547302 C5.32246078 46.86652542 5.31623199 47.85757782 5.30981445 48.87866211 C5.31044388 49.74897568 5.3110733 50.61928925 5.3117218 51.51597595 C4.85276102 54.40917865 3.9723215 55.78769004 1.9375 57.875 C-1.125 58.25 -1.125 58.25 -4.0625 57.875 C-6.61665923 55.32084077 -6.31955997 54.37506876 -6.3371582 50.83032227 C-6.34669022 49.77905655 -6.35622223 48.72779083 -6.36604309 47.64466858 C-6.36513168 46.50509201 -6.36422028 45.36551544 -6.36328125 44.19140625 C-6.36756638 43.02496078 -6.3718515 41.85851532 -6.37626648 40.65672302 C-6.38201802 38.18611298 -6.38250402 35.71548599 -6.37817383 33.24487305 C-6.3750159 29.45657558 -6.39845686 25.66906008 -6.42382812 21.88085938 C-6.42610115 19.48437599 -6.4268046 17.08789049 -6.42578125 14.69140625 C-6.434991 13.55385391 -6.44420074 12.41630157 -6.45368958 11.24427795 C-6.44746078 10.18986008 -6.44123199 9.1354422 -6.43481445 8.04907227 C-6.43544388 7.1202272 -6.4360733 6.19138214 -6.4367218 5.23439026 C-6.0625 2.875 -6.0625 2.875 -4.7306366 1.04380798 C-3.0625 -0.125 -3.0625 -0.125 0 0 Z " fill="#000000" transform="translate(137.0625,140.125)"/>
</svg>
